<?xml version="1.0" standalone="no"?>
<!DOCTYPE svg PUBLIC "-//W3C//DTD SVG 20010904//EN"
 "http://www.w3.org/TR/2001/REC-SVG-20010904/DTD/svg10.dtd">
<svg version="1.0" xmlns="http://www.w3.org/2000/svg"
 width="700.000000pt" height="700.000000pt" viewBox="0 0 700.000000 700.000000"
 preserveAspectRatio="xMidYMid meet">
<metadata>
Created by potrace 1.11, written by Peter Selinger 2001-2013
</metadata>
<g transform="translate(0.000000,700.000000) scale(0.100000,-0.100000)"
fill="#000000" stroke="none">
<path d="M3765 6645 c676 -120 1197 -652 1301 -1330 18 -121 18 -352 -2 -473
-79 -500 -391 -934 -834 -1161 -242 -123 -402 -164 -715 -181 -197 -11 -278
-21 -400 -52 -500 -123 -917 -496 -1095 -979 -148 -401 -130 -835 52 -1229
161 -350 494 -659 855 -795 238 -90 475 -123 758 -105 446 29 819 127 1210
319 1463 720 2140 2425 1570 3953 -402 1076 -1377 1860 -2515 2022 -58 8 -141
17 -185 20 l-80 5 80 -14z m-134 -4251 c88 -26 150 -63 215 -128 163 -163 195
-405 78 -603 -96 -165 -311 -266 -496 -235 -244 42 -419 242 -420 482 -1 142
45 255 146 356 65 65 117 96 206 125 71 23 199 24 271 3z"/>
<path d="M3455 5573 c-254 -31 -445 -240 -445 -487 0 -229 152 -423 377 -481
156 -41 338 10 456 129 299 298 115 800 -308 838 -27 3 -63 3 -80 1z"/>
</g>
</svg>
